<svg xmlns="http://www.w3.org/2000/svg" width="400" height="340"><linearGradient id="grad1" x1="0%" y1="0%" x2="100%" y2="0%"><stop offset="0%" style="stop-color:#ff0000;stop-opacity:1" /><stop offset="100%" style="stop-color:#050505;stop-opacity:1" /></linearGradient><path fill="url(#grad1)" d="M359.53541936784745,286.57745817220734C347.2147133932438,304.38715776269413,322.0396566924002,309.95224020718933,306.21555323402333,326.8581975429207C290.3914497756465,343.7641548786521,281.98218223180186,392.9265796471013,264.5907986175865,388.0132021865955C247.19941500337112,383.0998247260897,219.7442134644513,310.17533295988756,201.86725154873116,297.377932779886C183.99028963301103,284.58053259988446,169.41544229606546,314.3590306658295,157.32902712326563,311.2288011065863C145.2426119504658,308.09857154734306,149.1280823417852,287.7312041527903,129.34876051193226,278.5965554244266C109.56943868207934,269.46190669606284,44.62724155665323,270.31400347494196,38.653096144148094,256.4209087364038C32.678950731642956,242.5278139978657,76.23082517812023,209.5069924756711,93.50388803690144,195.23798699319786C110.77695089568266,180.96898151072463,131.42136009212655,181.4818161199027,142.29147329683545,170.80687584156436C153.16158650154435,160.13193556322602,148.879486440608,136.68707086947362,158.72456726515477,131.18834532316777C168.56964808970156,125.6896197768619,186.18729059273647,143.4138123987527,201.36195824411618,137.8145225637292C216.5366258954959,132.21523272870573,228.7950314018306,105.59402761592527,249.77257317343307,97.59260631302679C270.75011494503553,89.59118501012831,316.04184701679645,77.33612149699692,327.227208873731,89.80599474633837C338.41257073066555,102.27586799567982,308.0659809470546,150.71284493346522,316.8847443150403,172.4118458090755C325.703507683026,194.11084668468575,373.0313432395106,200.97239793947801,380.1397890816451,220C387.24823492377965,239.02760206052199,371.8561253424511,268.76775858172056,359.53541936784745,286.57745817220734" stroke="none" stroke-width="3"/></svg>