<svg width="16" height="16" viewBox="0 0 16 16" fill="none" xmlns="http://www.w3.org/2000/svg">
<path fill-rule="evenodd" clip-rule="evenodd" d="M3 1C2.46957 1 1.96086 1.21071 1.58579 1.58579C1.21071 1.96086 1 2.46957 1 3V13C1 13.5304 1.21071 14.0391 1.58579 14.4142C1.96086 14.7893 2.46957 15 3 15H13C13.5304 15 14.0391 14.7893 14.4142 14.4142C14.7893 14.0391 15 13.5304 15 13V3C15 2.46957 14.7893 1.96086 14.4142 1.58579C14.0391 1.21071 13.5304 1 13 1H3ZM4.102 5.297C4.41893 5.297 4.72289 5.1711 4.94699 4.94699C5.1711 4.72289 5.297 4.41893 5.297 4.102C5.297 3.78507 5.1711 3.48111 4.94699 3.25701C4.72289 3.0329 4.41893 2.907 4.102 2.907C3.78507 2.907 3.48111 3.0329 3.25701 3.25701C3.0329 3.48111 2.907 3.78507 2.907 4.102C2.907 4.41893 3.0329 4.72289 3.25701 4.94699C3.48111 5.1711 3.78507 5.297 4.102 5.297ZM5.102 12.813V6.234H3.102V12.813H5.102ZM6.43 6.234H8.43V7.115C8.725 6.653 9.373 6.031 10.578 6.031C12.016 6.031 12.797 6.984 12.797 8.797C12.797 8.884 12.805 9.281 12.805 9.281V12.812H10.805V9.282C10.805 8.797 10.703 7.844 9.625 7.844C8.546 7.844 8.455 9.042 8.43 9.826V12.812H6.43V6.234Z" fill="#FF0000"/>
</svg>
