<svg width="24" height="24" viewBox="0 0 24 24" fill="none" xmlns="http://www.w3.org/2000/svg">
<path d="M18.4823 21H16.7043C16.4972 21.0038 16.2916 20.9646 16.1003 20.885C15.4833 20.609 15.1703 20.245 15.0233 20.016C14.9836 19.9522 14.9643 19.8779 14.9679 19.8029C14.9714 19.7279 14.9978 19.6557 15.0433 19.596C15.7583 18.608 17.4163 18.011 18.4833 18.011M18.4853 21.001H20.2643C20.4703 21.001 20.6773 20.97 20.8673 20.885C21.4853 20.609 21.7983 20.245 21.9443 20.016C21.9842 19.9523 22.0037 19.8781 22.0003 19.803C21.9969 19.728 21.9707 19.6558 21.9253 19.596C21.2103 18.608 19.5513 18.011 18.4853 18.011M5.51533 11.492H3.73633C3.53033 11.492 3.32333 11.462 3.13333 11.377C2.51533 11.101 2.20233 10.737 2.05633 10.509C2.0165 10.4453 1.99698 10.3711 2.00038 10.296C2.00377 10.221 2.02991 10.1488 2.07533 10.089C2.79033 9.1 4.44933 8.503 5.51533 8.503M5.51833 11.493H7.29633C7.50333 11.493 7.71033 11.463 7.90033 11.377C8.51733 11.101 8.83033 10.737 8.97733 10.509C9.01702 10.4452 9.03636 10.3709 9.03279 10.2959C9.02922 10.2209 9.0029 10.1487 8.95733 10.089C8.24233 9.1 6.58433 8.503 5.51733 8.503M11.4873 4C14.3003 4 16.7003 4 17.5743 4.879C18.4483 5.758 18.4483 6.672 18.4483 9.502L16.4593 8.502M11.9843 20.006C9.17133 20.006 6.77133 20.006 5.89733 19.126C5.02333 18.248 5.02333 17.333 5.02333 14.504L7.01233 15.504M5.52033 3C4.69633 3 4.02833 3.672 4.02833 4.5C4.02833 5.33 4.69633 6.001 5.52033 6.001C6.34433 6.001 7.01233 5.329 7.01233 4.501C7.01233 3.67 6.34433 3 5.52033 3ZM18.4483 12.503C17.6243 12.503 16.9563 13.175 16.9563 14.003C16.9563 14.833 17.6243 15.503 18.4483 15.503C19.2723 15.503 19.9393 14.833 19.9393 14.003C19.9393 13.175 19.2723 12.503 18.4483 12.503Z" stroke="blue" stroke-width="1.5" stroke-linecap="round" stroke-linejoin="round"/>
</svg>
