<svg width="16" height="16" viewBox="0 0 16 16" fill="none" xmlns="http://www.w3.org/2000/svg">
<g clip-path="url(#clip0_161_347)">
<path d="M2 14H16V16H0V0H2V14ZM4.5 13C4.29725 13.0004 4.09651 12.9597 3.90993 12.8803C3.72335 12.801 3.55479 12.6846 3.41445 12.5383C3.2741 12.392 3.16487 12.2187 3.09337 12.029C3.02187 11.8393 2.98957 11.637 2.99844 11.4344C3.0073 11.2319 3.05714 11.0332 3.14494 10.8505C3.23274 10.6677 3.35668 10.5046 3.50927 10.3711C3.66186 10.2376 3.83994 10.1364 4.03274 10.0737C4.22553 10.0109 4.42906 9.98789 4.631 10.006L6.243 7.319C6.0956 7.09264 6.01207 6.83067 6.00121 6.56077C5.99036 6.29086 6.05259 6.02304 6.18133 5.78557C6.31008 5.5481 6.50056 5.3498 6.73266 5.21162C6.96477 5.07344 7.22988 5.00049 7.5 5.00049C7.77012 5.00049 8.03523 5.07344 8.26734 5.21162C8.49944 5.3498 8.68992 5.5481 8.81867 5.78557C8.94741 6.02304 9.00964 6.29086 8.99879 6.56077C8.98793 6.83067 8.9044 7.09264 8.757 7.319L10.369 10.006C10.4455 9.99903 10.5224 9.99836 10.599 10.004L13.261 5.346C13.0697 5.06579 12.9791 4.729 13.0039 4.39062C13.0287 4.05225 13.1674 3.73227 13.3975 3.48295C13.6276 3.23362 13.9355 3.06966 14.2708 3.01785C14.6061 2.96604 14.9491 3.02944 15.2437 3.19768C15.5383 3.36593 15.7672 3.6291 15.893 3.94421C16.0187 4.25932 16.034 4.60776 15.9362 4.93264C15.8384 5.25752 15.6333 5.53965 15.3545 5.73297C15.0757 5.92628 14.7395 6.01936 14.401 5.997L11.739 10.655C11.8919 10.8793 11.9811 11.1409 11.9971 11.412C12.013 11.683 11.9551 11.9533 11.8295 12.194C11.7039 12.4347 11.5153 12.6368 11.2838 12.7787C11.0524 12.9206 10.7868 12.9971 10.5153 12.9999C10.2438 13.0028 9.97664 12.9319 9.74229 12.7948C9.50794 12.6577 9.31519 12.4596 9.1846 12.2215C9.054 11.9835 8.99046 11.7145 9.00074 11.4432C9.01103 11.1719 9.09476 10.9085 9.243 10.681L7.631 7.994C7.54386 8.00219 7.45614 8.00219 7.369 7.994L5.757 10.681C5.90453 10.9074 5.98817 11.1694 5.9991 11.4394C6.01002 11.7093 5.94781 11.9773 5.81905 12.2148C5.69029 12.4524 5.49976 12.6507 5.26758 12.7889C5.0354 12.9271 4.7702 13.0001 4.5 13Z" fill="blue"/>
</g>
<defs>
<clipPath id="clip0_161_347">
<rect width="16" height="16" fill="white"/>
</clipPath>
</defs>
</svg>
